# Export of Editor
# from Aaro4130 OBJ Exporter v2.0
mtllib New_Obj.mtl
g RoadMesh
v -101.7486 0 -4.179482
v -111.944 0 -4.188324
v -122.1394 0 -4.21485
v -132.3347 0 -4.259062
v -142.5299 0 -4.320958
v -152.725 0 -4.400537
v -162.92 0 -4.4978
v -173.1147 0 -4.612746
v -183.3093 0 -4.745375
v -193.5036 0 -4.895685
v -204.1525 0 -4.846272
v -215.1763 0 -2.890707
v -225.5774 0 1.258227
v -234.9221 0 7.419249
v -242.8413 0 15.32983
v -249.0191 0 24.67929
v -253.1865 0 35.10557
v -255.1505 0 46.18382
v -255.2448 0 56.82425
v -255.1604 0 67.02368
v -255.0848 0 77.22317
v -255.018 0 87.42272
v -254.9599 0 97.62234
v -254.9106 0 107.822
v -254.8702 0 118.0217
v -254.8385 0 128.2214
v -254.8155 0 138.4212
v -254.8014 0 148.6209
v -254.7961 0 158.8207
v -254.7995 0 169.0205
v -254.8117 0 179.2203
v -254.8327 0 189.42
v -254.8625 0 199.6198
v -254.901 0 209.8195
v -254.9484 0 220.0191
v -255.0045 0 230.2188
v -255.0694 0 240.4184
v -255.1393 0 250.6808
v -253.9467 0 261.8214
v -250.4955 0 272.4884
v -244.9329 0 282.2185
v -237.5079 0 290.6108
v -228.5251 0 297.3253
v -218.339 0 302.0698
v -207.3717 0 304.6194
v -196.5571 0 305.0755
v -186.3537 0 305.1454
v -176.1504 0 305.2162
v -165.947 0 305.2881
v -155.7437 0 305.3611
v -145.5404 0 305.435
v -135.3371 0 305.5099
v -125.1338 0 305.5859
v -114.9305 0 305.6629
v -104.7272 0 305.7409
v -94.52396 0 305.8199
v -84.32066 0 305.8999
v -74.11742 0 305.981
v -63.91415 0 306.063
v -53.71089 0 306.146
v -43.50765 0 306.2301
v -33.30441 0 306.3151
v -23.10119 0 306.4012
v -12.89797 0 306.4883
v -2.694741 0 306.5763
v 8.213138 0 306.0855
v 19.09721 0 303.4283
v 29.20958 0 298.6098
v 38.13299 0 291.8461
v 45.51371 0 283.4208
v 51.04778 0 273.6626
v 54.48291 0 262.9579
v 55.66111 0 251.7574
v 55.47912 0 241.4395
v 55.30218 0 231.2453
v 55.14229 0 221.0508
v 54.99943 0 210.8561
v 54.87361 0 200.6611
v 54.76483 0 190.466
v 54.6731 0 180.2707
v 54.5984 0 170.0753
v 54.54074 0 159.8797
v 54.50012 0 149.6841
v 54.47654 0 139.4884
v 54.46998 0 129.2926
v 54.48047 0 119.0969
v 54.50799 0 108.9012
v 54.55255 0 98.70555
v 54.61414 0 88.50999
v 54.69276 0 78.31454
v 54.78841 0 68.11925
v 54.90109 0 57.92412
v 54.94096 0 47.43077
v 53.29243 0 36.353
v 49.42155 0 25.83907
v 43.49632 0 16.33502
v 35.77491 0 8.223742
v 26.56628 0 1.831043
v 16.22948 0 -2.564891
v 5.189899 0 -4.758003
v -5.509534 0 -4.997594
v -15.72169 0 -4.980412
v -25.93381 0 -4.946705
v -36.14585 0 -4.896478
v -46.35779 0 -4.829736
v -56.56961 0 -4.746482
v -66.7813 0 -4.646723
v -76.99277 0 -4.530463
v -87.20406 0 -4.397705
v -97.41513 0 -4.248456
v -101.7486 0 -4.179482
v -101.7486 0 5.820518
v -111.9614 0 5.811661
v -122.1741 0 5.785089
v -132.3868 0 5.740802
v -142.5993 0 5.678802
v -152.8118 0 5.599086
v -163.024 0 5.501658
v -173.2362 0 5.386518
v -183.4481 0 5.253663
v -193.6597 0 5.103096
v -203.4115 0 5.126236
v -212.4373 0 6.726876
v -220.9463 0 10.12123
v -228.6029 0 15.16963
v -235.0979 0 21.65752
v -240.1605 0 29.31872
v -243.5701 0 37.84872
v -245.1774 0 46.9179
v -245.2452 0 56.7372
v -245.1607 0 66.94524
v -245.0851 0 77.15334
v -245.0182 0 87.3615
v -244.9601 0 97.56973
v -244.9107 0 107.778
v -244.8702 0 117.9863
v -244.8385 0 128.1946
v -244.8156 0 138.403
v -244.8014 0 148.6114
v -244.7961 0 158.8198
v -244.7995 0 169.0282
v -244.8117 0 179.2365
v -244.8327 0 189.4449
v -244.8625 0 199.6533
v -244.9011 0 209.8616
v -244.9485 0 220.0699
v -245.0047 0 230.2781
v -245.0696 0 240.4863
v -245.1395 0 250.6344
v -244.1652 0 259.7425
v -241.3499 0 268.4441
v -236.8061 0 276.3914
v -230.7334 0 283.2552
v -223.3901 0 288.7444
v -215.0768 0 292.6168
v -206.1267 0 294.6972
v -196.4891 0 295.0757
v -186.2848 0 295.1456
v -176.0804 0 295.2165
v -165.8761 0 295.2884
v -155.6718 0 295.3613
v -145.4675 0 295.4352
v -135.2632 0 295.5102
v -125.0589 0 295.5862
v -114.8546 0 295.6632
v -104.6503 0 295.7412
v -94.44603 0 295.8202
v -84.24174 0 295.9002
v -74.03751 0 295.9813
v -63.83325 0 296.0633
v -53.62901 0 296.1464
v -43.42478 0 296.2304
v -33.22056 0 296.3155
v -23.01636 0 296.4016
v -12.81215 0 296.4886
v -2.60794 0 296.5767
v 6.847748 0 296.1792
v 15.74204 0 294.0079
v 24.00896 0 290.0685
v 31.31637 0 284.5294
v 37.36305 0 277.6271
v 41.89075 0 269.6441
v 44.69731 0 260.8983
v 45.66116 0 251.7281
v 45.48077 0 241.6214
v 45.30355 0 231.4105
v 45.14339 0 221.1993
v 45.0003 0 210.9878
v 44.87427 0 200.7762
v 44.76532 0 190.5643
v 44.67343 0 180.3523
v 44.59861 0 170.1402
v 44.54086 0 159.9279
v 44.50017 0 149.7155
v 44.47654 0 139.5031
v 44.46998 0 129.2907
v 44.48049 0 119.0782
v 44.50805 0 108.8658
v 44.55268 0 98.6535
v 44.61437 0 88.44123
v 44.69312 0 78.22908
v 44.78893 0 68.01707
v 44.9018 0 57.80526
v 44.95155 0 47.89082
v 43.60339 0 38.82742
v 40.44063 0 30.23712
v 35.59217 0 22.46074
v 29.2673 0 15.81656
v 21.72968 0 10.5836
v 13.2822 0 6.990923
v 4.256968 0 5.198384
v -5.500802 0 5.002402
v -15.69678 0 5.019557
v -25.89271 0 5.05321
v -36.08858 0 5.103358
v -46.28435 0 5.169994
v -56.48001 0 5.253116
v -66.67552 0 5.352718
v -76.87085 0 5.468794
v -87.06599 0 5.601342
v -97.26091 0 5.750355
v -101.7486 0 5.820518
vn 0 0.5773503 0
vn 0 0.5773503 0
vn 0 0.5773503 0
vn 0 0.5773503 0
vn 0 0.5773503 0
vn 0 0.5773503 0
vn 0 0.5773503 0
vn 0 0.5773503 0
vn 0 0.5773503 0
vn 0 0.5773503 0
vn 0 0.5773503 0
vn 0 0.5773503 0
vn 0 0.5773503 0
vn 0 0.5773503 0
vn 0 0.5773503 0
vn 0 0.5773503 0
vn 0 0.5773503 0
vn 0 0.5773503 0
vn 0 0.5773503 0
vn 0 0.5773503 0
vn 0 0.5773503 0
vn 0 0.5773503 0
vn 0 0.5773503 0
vn 0 0.5773503 0
vn 0 0.5773503 0
vn 0 0.5773503 0
vn 0 0.5773503 0
vn 0 0.5773503 0
vn 0 0.5773503 0
vn 0 0.5773503 0
vn 0 0.5773503 0
vn 0 0.5773503 0
vn 0 0.5773503 0
vn 0 0.5773503 0
vn 0 0.5773503 0
vn 0 0.5773503 0
vn 0 0.5773503 0
vn 0 0.5773503 0
vn 0 0.5773503 0
vn 0 0.5773503 0
vn 0 0.5773503 0
vn 0 0.5773503 0
vn 0 0.5773503 0
vn 0 0.5773503 0
vn 0 0.5773503 0
vn 0 0.5773503 0
vn 0 0.5773503 0
vn 0 0.5773503 0
vn 0 0.5773503 0
vn 0 0.5773503 0
vn 0 0.5773503 0
vn 0 0.5773503 0
vn 0 0.5773503 0
vn 0 0.5773503 0
vn 0 0.5773503 0
vn 0 0.5773503 0
vn 0 0.5773503 0
vn 0 0.5773503 0
vn 0 0.5773503 0
vn 0 0.5773503 0
vn 0 0.5773503 0
vn 0 0.5773503 0
vn 0 0.5773503 0
vn 0 0.5773503 0
vn 0 0.5773503 0
vn 0 0.5773503 0
vn 0 0.5773503 0
vn 0 0.5773503 0
vn 0 0.5773503 0
vn 0 0.5773503 0
vn 0 0.5773503 0
vn 0 0.5773503 0
vn 0 0.5773503 0
vn 0 0.5773503 0
vn 0 0.5773503 0
vn 0 0.5773503 0
vn 0 0.5773503 0
vn 0 0.5773503 0
vn 0 0.5773503 0
vn 0 0.5773503 0
vn 0 0.5773503 0
vn 0 0.5773503 0
vn 0 0.5773503 0
vn 0 0.5773503 0
vn 0 0.5773503 0
vn 0 0.5773503 0
vn 0 0.5773503 0
vn 0 0.5773503 0
vn 0 0.5773503 0
vn 0 0.5773503 0
vn 0 0.5773503 0
vn 0 0.5773503 0
vn 0 0.5773503 0
vn 0 0.5773503 0
vn 0 0.5773503 0
vn 0 0.5773503 0
vn 0 0.5773503 0
vn 0 0.5773503 0
vn 0 0.5773503 0
vn 0 0.5773503 0
vn 0 0.5773503 0
vn 0 0.5773503 0
vn 0 0.5773503 0
vn 0 0.5773503 0
vn 0 0.5773503 0
vn 0 0.5773503 0
vn 0 0.5773503 0
vn 0 0.5773503 0
vn 0 0.5773503 0
vn 0 0.5773503 0
vn 0 0.5773503 0
vn 0 0.5773503 0
vn 0 0.5773503 0
vn 0 0.5773503 0
vn 0 0.5773503 0
vn 0 0.5773503 0
vn 0 0.5773503 0
vn 0 0.5773503 0
vn 0 0.5773503 0
vn 0 0.5773503 0
vn 0 0.5773503 0
vn 0 0.5773503 0
vn 0 0.5773503 0
vn 0 0.5773503 0
vn 0 0.5773503 0
vn 0 0.5773503 0
vn 0 0.5773503 0
vn 0 0.5773503 0
vn 0 0.5773503 0
vn 0 0.5773503 0
vn 0 0.5773503 0
vn 0 0.5773503 0
vn 0 0.5773503 0
vn 0 0.5773503 0
vn 0 0.5773503 0
vn 0 0.5773503 0
vn 0 0.5773503 0
vn 0 0.5773503 0
vn 0 0.5773503 0
vn 0 0.5773503 0
vn 0 0.5773503 0
vn 0 0.5773503 0
vn 0 0.5773503 0
vn 0 0.5773503 0
vn 0 0.5773503 0
vn 0 0.5773503 0
vn 0 0.5773503 0
vn 0 0.5773503 0
vn 0 0.5773503 0
vn 0 0.5773503 0
vn 0 0.5773503 0
vn 0 0.5773503 0
vn 0 0.5773503 0
vn 0 0.5773503 0
vn 0 0.5773503 0
vn 0 0.5773503 0
vn 0 0.5773503 0
vn 0 0.5773503 0
vn 0 0.5773503 0
vn 0 0.5773503 0
vn 0 0.5773503 0
vn 0 0.5773503 0
vn 0 0.5773503 0
vn 0 0.5773503 0
vn 0 0.5773503 0
vn 0 0.5773503 0
vn 0 0.5773503 0
vn 0 0.5773503 0
vn 0 0.5773503 0
vn 0 0.5773503 0
vn 0 0.5773503 0
vn 0 0.5773503 0
vn 0 0.5773503 0
vn 0 0.5773503 0
vn 0 0.5773503 0
vn 0 0.5773503 0
vn 0 0.5773503 0
vn 0 0.5773503 0
vn 0 0.5773503 0
vn 0 0.5773503 0
vn 0 0.5773503 0
vn 0 0.5773503 0
vn 0 0.5773503 0
vn 0 0.5773503 0
vn 0 0.5773503 0
vn 0 0.5773503 0
vn 0 0.5773503 0
vn 0 0.5773503 0
vn 0 0.5773503 0
vn 0 0.5773503 0
vn 0 0.5773503 0
vn 0 0.5773503 0
vn 0 0.5773503 0
vn 0 0.5773503 0
vn 0 0.5773503 0
vn 0 0.5773503 0
vn 0 0.5773503 0
vn 0 0.5773503 0
vn 0 0.5773503 0
vn 0 0.5773503 0
vn 0 0.5773503 0
vn 0 0.5773503 0
vn 0 0.5773503 0
vn 0 0.5773503 0
vn 0 0.5773503 0
vn 0 0.5773503 0
vn 0 0.5773503 0
vn 0 0.5773503 0
vn 0 0.5773503 0
vn 0 0.5773503 0
vn 0 0.5773503 0
vn 0 0.5773503 0
vn 0 0.5773503 0
vn 0 0.5773503 0
vn 0 0.5773503 0
vn 0 0.5773503 0
vn 0 0.5773503 0
vn 0 0.5773503 0
vn 0 0.5773503 0
vn 0 0.5773503 0
vn 0 0.5773503 0
vn 0 0.5773503 0
vt 0 -0.25
vt 1.021276 -0.25
vt 2.042552 -0.25
vt 3.063826 -0.25
vt 4.085101 -0.25
vt 5.106376 -0.25
vt 6.12765 -0.25
vt 7.148927 -0.25
vt 8.170202 -0.25
vt 9.19148 -0.25
vt 10.16666 -0.25
vt 11.08333 -0.25
vt 11.99943 -0.25
vt 12.91654 -0.25
vt 13.83457 -0.25
vt 14.75285 -0.25
vt 15.67147 -0.25
vt 16.59253 -0.25
vt 17.57448 -0.25
vt 18.59532 -0.25
vt 19.61616 -0.25
vt 20.63699 -0.25
vt 21.65783 -0.25
vt 22.67867 -0.25
vt 23.69951 -0.25
vt 24.72035 -0.25
vt 25.74119 -0.25
vt 26.76203 -0.25
vt 27.78286 -0.25
vt 28.80371 -0.25
vt 29.82454 -0.25
vt 30.84538 -0.25
vt 31.86622 -0.25
vt 32.88706 -0.25
vt 33.9079 -0.25
vt 34.92874 -0.25
vt 35.94958 -0.25
vt 36.96441 -0.25
vt 37.88042 -0.25
vt 38.79499 -0.25
vt 39.71045 -0.25
vt 40.6269 -0.25
vt 41.54372 -0.25
vt 42.46082 -0.25
vt 43.37969 -0.25
vt 44.34419 -0.25
vt 45.36465 -0.25
vt 46.38511 -0.25
vt 47.40557 -0.25
vt 48.42603 -0.25
vt 49.44648 -0.25
vt 50.46694 -0.25
vt 51.4874 -0.25
vt 52.50786 -0.25
vt 53.52832 -0.25
vt 54.54878 -0.25
vt 55.56924 -0.25
vt 56.58969 -0.25
vt 57.61015 -0.25
vt 58.63061 -0.25
vt 59.65107 -0.25
vt 60.67153 -0.25
vt 61.69199 -0.25
vt 62.71244 -0.25
vt 63.7329 -0.25
vt 64.67931 -0.25
vt 65.59486 -0.25
vt 66.51061 -0.25
vt 67.42757 -0.25
vt 68.3452 -0.25
vt 69.26295 -0.25
vt 70.18147 -0.25
vt 71.10354 -0.25
vt 72.11437 -0.25
vt 73.13561 -0.25
vt 74.15686 -0.25
vt 75.17811 -0.25
vt 76.19935 -0.25
vt 77.22059 -0.25
vt 78.24184 -0.25
vt 79.26308 -0.25
vt 80.28432 -0.25
vt 81.30556 -0.25
vt 82.3268 -0.25
vt 83.34805 -0.25
vt 84.36929 -0.25
vt 85.39054 -0.25
vt 86.41178 -0.25
vt 87.43303 -0.25
vt 88.45427 -0.25
vt 89.47552 -0.25
vt 90.49677 -0.25
vt 91.48822 -0.25
vt 92.40453 -0.25
vt 93.31994 -0.25
vt 94.23634 -0.25
vt 95.15367 -0.25
vt 96.07127 -0.25
vt 96.98924 -0.25
vt 97.9094 -0.25
vt 98.88538 -0.25
vt 99.90498 -0.25
vt 100.9246 -0.25
vt 101.9442 -0.25
vt 102.9638 -0.25
vt 103.9834 -0.25
vt 105.003 -0.25
vt 106.0226 -0.25
vt 107.0422 -0.25
vt 108.0618 -0.25
vt 108.5106 -0.25
vt 0 2.25
vt 1.021276 2.25
vt 2.042552 2.25
vt 3.063826 2.25
vt 4.085101 2.25
vt 5.106376 2.25
vt 6.12765 2.25
vt 7.148927 2.25
vt 8.170202 2.25
vt 9.19148 2.25
vt 10.16666 2.25
vt 11.08333 2.25
vt 11.99943 2.25
vt 12.91654 2.25
vt 13.83457 2.25
vt 14.75285 2.25
vt 15.67147 2.25
vt 16.59253 2.25
vt 17.57448 2.25
vt 18.59532 2.25
vt 19.61616 2.25
vt 20.63699 2.25
vt 21.65783 2.25
vt 22.67867 2.25
vt 23.69951 2.25
vt 24.72035 2.25
vt 25.74119 2.25
vt 26.76203 2.25
vt 27.78286 2.25
vt 28.80371 2.25
vt 29.82454 2.25
vt 30.84538 2.25
vt 31.86622 2.25
vt 32.88706 2.25
vt 33.9079 2.25
vt 34.92874 2.25
vt 35.94958 2.25
vt 36.96441 2.25
vt 37.88042 2.25
vt 38.79499 2.25
vt 39.71045 2.25
vt 40.6269 2.25
vt 41.54372 2.25
vt 42.46082 2.25
vt 43.37969 2.25
vt 44.34419 2.25
vt 45.36465 2.25
vt 46.38511 2.25
vt 47.40557 2.25
vt 48.42603 2.25
vt 49.44648 2.25
vt 50.46694 2.25
vt 51.4874 2.25
vt 52.50786 2.25
vt 53.52832 2.25
vt 54.54878 2.25
vt 55.56924 2.25
vt 56.58969 2.25
vt 57.61015 2.25
vt 58.63061 2.25
vt 59.65107 2.25
vt 60.67153 2.25
vt 61.69199 2.25
vt 62.71244 2.25
vt 63.7329 2.25
vt 64.67931 2.25
vt 65.59486 2.25
vt 66.51061 2.25
vt 67.42757 2.25
vt 68.3452 2.25
vt 69.26295 2.25
vt 70.18147 2.25
vt 71.10354 2.25
vt 72.11437 2.25
vt 73.13561 2.25
vt 74.15686 2.25
vt 75.17811 2.25
vt 76.19935 2.25
vt 77.22059 2.25
vt 78.24184 2.25
vt 79.26308 2.25
vt 80.28432 2.25
vt 81.30556 2.25
vt 82.3268 2.25
vt 83.34805 2.25
vt 84.36929 2.25
vt 85.39054 2.25
vt 86.41178 2.25
vt 87.43303 2.25
vt 88.45427 2.25
vt 89.47552 2.25
vt 90.49677 2.25
vt 91.48822 2.25
vt 92.40453 2.25
vt 93.31994 2.25
vt 94.23634 2.25
vt 95.15367 2.25
vt 96.07127 2.25
vt 96.98924 2.25
vt 97.9094 2.25
vt 98.88538 2.25
vt 99.90498 2.25
vt 100.9246 2.25
vt 101.9442 2.25
vt 102.9638 2.25
vt 103.9834 2.25
vt 105.003 2.25
vt 106.0226 2.25
vt 107.0422 2.25
vt 108.0618 2.25
vt 108.5106 2.25
usemtl Legacy Shaders/Diffuse (Instance)
f 113/113/113 112/112/112 1/1/1
f 2/2/2 113/113/113 1/1/1
f 114/114/114 113/113/113 2/2/2
f 3/3/3 114/114/114 2/2/2
f 115/115/115 114/114/114 3/3/3
f 4/4/4 115/115/115 3/3/3
f 116/116/116 115/115/115 4/4/4
f 5/5/5 116/116/116 4/4/4
f 117/117/117 116/116/116 5/5/5
f 6/6/6 117/117/117 5/5/5
f 118/118/118 117/117/117 6/6/6
f 7/7/7 118/118/118 6/6/6
f 119/119/119 118/118/118 7/7/7
f 8/8/8 119/119/119 7/7/7
f 120/120/120 119/119/119 8/8/8
f 9/9/9 120/120/120 8/8/8
f 121/121/121 120/120/120 9/9/9
f 10/10/10 121/121/121 9/9/9
f 122/122/122 121/121/121 10/10/10
f 11/11/11 122/122/122 10/10/10
f 123/123/123 122/122/122 11/11/11
f 12/12/12 123/123/123 11/11/11
f 124/124/124 123/123/123 12/12/12
f 13/13/13 124/124/124 12/12/12
f 125/125/125 124/124/124 13/13/13
f 14/14/14 125/125/125 13/13/13
f 126/126/126 125/125/125 14/14/14
f 15/15/15 126/126/126 14/14/14
f 127/127/127 126/126/126 15/15/15
f 16/16/16 127/127/127 15/15/15
f 128/128/128 127/127/127 16/16/16
f 17/17/17 128/128/128 16/16/16
f 129/129/129 128/128/128 17/17/17
f 18/18/18 129/129/129 17/17/17
f 130/130/130 129/129/129 18/18/18
f 19/19/19 130/130/130 18/18/18
f 131/131/131 130/130/130 19/19/19
f 20/20/20 131/131/131 19/19/19
f 132/132/132 131/131/131 20/20/20
f 21/21/21 132/132/132 20/20/20
f 133/133/133 132/132/132 21/21/21
f 22/22/22 133/133/133 21/21/21
f 134/134/134 133/133/133 22/22/22
f 23/23/23 134/134/134 22/22/22
f 135/135/135 134/134/134 23/23/23
f 24/24/24 135/135/135 23/23/23
f 136/136/136 135/135/135 24/24/24
f 25/25/25 136/136/136 24/24/24
f 137/137/137 136/136/136 25/25/25
f 26/26/26 137/137/137 25/25/25
f 138/138/138 137/137/137 26/26/26
f 27/27/27 138/138/138 26/26/26
f 139/139/139 138/138/138 27/27/27
f 28/28/28 139/139/139 27/27/27
f 140/140/140 139/139/139 28/28/28
f 29/29/29 140/140/140 28/28/28
f 141/141/141 140/140/140 29/29/29
f 30/30/30 141/141/141 29/29/29
f 142/142/142 141/141/141 30/30/30
f 31/31/31 142/142/142 30/30/30
f 143/143/143 142/142/142 31/31/31
f 32/32/32 143/143/143 31/31/31
f 144/144/144 143/143/143 32/32/32
f 33/33/33 144/144/144 32/32/32
f 145/145/145 144/144/144 33/33/33
f 34/34/34 145/145/145 33/33/33
f 146/146/146 145/145/145 34/34/34
f 35/35/35 146/146/146 34/34/34
f 147/147/147 146/146/146 35/35/35
f 36/36/36 147/147/147 35/35/35
f 148/148/148 147/147/147 36/36/36
f 37/37/37 148/148/148 36/36/36
f 149/149/149 148/148/148 37/37/37
f 38/38/38 149/149/149 37/37/37
f 150/150/150 149/149/149 38/38/38
f 39/39/39 150/150/150 38/38/38
f 151/151/151 150/150/150 39/39/39
f 40/40/40 151/151/151 39/39/39
f 152/152/152 151/151/151 40/40/40
f 41/41/41 152/152/152 40/40/40
f 153/153/153 152/152/152 41/41/41
f 42/42/42 153/153/153 41/41/41
f 154/154/154 153/153/153 42/42/42
f 43/43/43 154/154/154 42/42/42
f 155/155/155 154/154/154 43/43/43
f 44/44/44 155/155/155 43/43/43
f 156/156/156 155/155/155 44/44/44
f 45/45/45 156/156/156 44/44/44
f 157/157/157 156/156/156 45/45/45
f 46/46/46 157/157/157 45/45/45
f 158/158/158 157/157/157 46/46/46
f 47/47/47 158/158/158 46/46/46
f 159/159/159 158/158/158 47/47/47
f 48/48/48 159/159/159 47/47/47
f 160/160/160 159/159/159 48/48/48
f 49/49/49 160/160/160 48/48/48
f 161/161/161 160/160/160 49/49/49
f 50/50/50 161/161/161 49/49/49
f 162/162/162 161/161/161 50/50/50
f 51/51/51 162/162/162 50/50/50
f 163/163/163 162/162/162 51/51/51
f 52/52/52 163/163/163 51/51/51
f 164/164/164 163/163/163 52/52/52
f 53/53/53 164/164/164 52/52/52
f 165/165/165 164/164/164 53/53/53
f 54/54/54 165/165/165 53/53/53
f 166/166/166 165/165/165 54/54/54
f 55/55/55 166/166/166 54/54/54
f 167/167/167 166/166/166 55/55/55
f 56/56/56 167/167/167 55/55/55
f 168/168/168 167/167/167 56/56/56
f 57/57/57 168/168/168 56/56/56
f 169/169/169 168/168/168 57/57/57
f 58/58/58 169/169/169 57/57/57
f 170/170/170 169/169/169 58/58/58
f 59/59/59 170/170/170 58/58/58
f 171/171/171 170/170/170 59/59/59
f 60/60/60 171/171/171 59/59/59
f 172/172/172 171/171/171 60/60/60
f 61/61/61 172/172/172 60/60/60
f 173/173/173 172/172/172 61/61/61
f 62/62/62 173/173/173 61/61/61
f 174/174/174 173/173/173 62/62/62
f 63/63/63 174/174/174 62/62/62
f 175/175/175 174/174/174 63/63/63
f 64/64/64 175/175/175 63/63/63
f 176/176/176 175/175/175 64/64/64
f 65/65/65 176/176/176 64/64/64
f 177/177/177 176/176/176 65/65/65
f 66/66/66 177/177/177 65/65/65
f 178/178/178 177/177/177 66/66/66
f 67/67/67 178/178/178 66/66/66
f 179/179/179 178/178/178 67/67/67
f 68/68/68 179/179/179 67/67/67
f 180/180/180 179/179/179 68/68/68
f 69/69/69 180/180/180 68/68/68
f 181/181/181 180/180/180 69/69/69
f 70/70/70 181/181/181 69/69/69
f 182/182/182 181/181/181 70/70/70
f 71/71/71 182/182/182 70/70/70
f 183/183/183 182/182/182 71/71/71
f 72/72/72 183/183/183 71/71/71
f 184/184/184 183/183/183 72/72/72
f 73/73/73 184/184/184 72/72/72
f 185/185/185 184/184/184 73/73/73
f 74/74/74 185/185/185 73/73/73
f 186/186/186 185/185/185 74/74/74
f 75/75/75 186/186/186 74/74/74
f 187/187/187 186/186/186 75/75/75
f 76/76/76 187/187/187 75/75/75
f 188/188/188 187/187/187 76/76/76
f 77/77/77 188/188/188 76/76/76
f 189/189/189 188/188/188 77/77/77
f 78/78/78 189/189/189 77/77/77
f 190/190/190 189/189/189 78/78/78
f 79/79/79 190/190/190 78/78/78
f 191/191/191 190/190/190 79/79/79
f 80/80/80 191/191/191 79/79/79
f 192/192/192 191/191/191 80/80/80
f 81/81/81 192/192/192 80/80/80
f 193/193/193 192/192/192 81/81/81
f 82/82/82 193/193/193 81/81/81
f 194/194/194 193/193/193 82/82/82
f 83/83/83 194/194/194 82/82/82
f 195/195/195 194/194/194 83/83/83
f 84/84/84 195/195/195 83/83/83
f 196/196/196 195/195/195 84/84/84
f 85/85/85 196/196/196 84/84/84
f 197/197/197 196/196/196 85/85/85
f 86/86/86 197/197/197 85/85/85
f 198/198/198 197/197/197 86/86/86
f 87/87/87 198/198/198 86/86/86
f 199/199/199 198/198/198 87/87/87
f 88/88/88 199/199/199 87/87/87
f 200/200/200 199/199/199 88/88/88
f 89/89/89 200/200/200 88/88/88
f 201/201/201 200/200/200 89/89/89
f 90/90/90 201/201/201 89/89/89
f 202/202/202 201/201/201 90/90/90
f 91/91/91 202/202/202 90/90/90
f 203/203/203 202/202/202 91/91/91
f 92/92/92 203/203/203 91/91/91
f 204/204/204 203/203/203 92/92/92
f 93/93/93 204/204/204 92/92/92
f 205/205/205 204/204/204 93/93/93
f 94/94/94 205/205/205 93/93/93
f 206/206/206 205/205/205 94/94/94
f 95/95/95 206/206/206 94/94/94
f 207/207/207 206/206/206 95/95/95
f 96/96/96 207/207/207 95/95/95
f 208/208/208 207/207/207 96/96/96
f 97/97/97 208/208/208 96/96/96
f 209/209/209 208/208/208 97/97/97
f 98/98/98 209/209/209 97/97/97
f 210/210/210 209/209/209 98/98/98
f 99/99/99 210/210/210 98/98/98
f 211/211/211 210/210/210 99/99/99
f 100/100/100 211/211/211 99/99/99
f 212/212/212 211/211/211 100/100/100
f 101/101/101 212/212/212 100/100/100
f 213/213/213 212/212/212 101/101/101
f 102/102/102 213/213/213 101/101/101
f 214/214/214 213/213/213 102/102/102
f 103/103/103 214/214/214 102/102/102
f 215/215/215 214/214/214 103/103/103
f 104/104/104 215/215/215 103/103/103
f 216/216/216 215/215/215 104/104/104
f 105/105/105 216/216/216 104/104/104
f 217/217/217 216/216/216 105/105/105
f 106/106/106 217/217/217 105/105/105
f 218/218/218 217/217/217 106/106/106
f 107/107/107 218/218/218 106/106/106
f 219/219/219 218/218/218 107/107/107
f 108/108/108 219/219/219 107/107/107
f 220/220/220 219/219/219 108/108/108
f 109/109/109 220/220/220 108/108/108
f 221/221/221 220/220/220 109/109/109
f 110/110/110 221/221/221 109/109/109
f 222/222/222 221/221/221 110/110/110
f 111/111/111 222/222/222 110/110/110
